<svg width="24" height="24" viewBox="0 0 24 24" fill="none" xmlns="http://www.w3.org/2000/svg">
<g clip-path="url(#clip0)">
<path d="M21.869 5.86841C21.673 3.95261 21.3609 2.46097 20.867 1.87466C18.8308 -0.536062 4.56715 -0.712482 2.94767 1.87466C2.55152 2.50851 2.27369 3.99487 2.08723 5.87158C1.48561 5.94236 1.01709 6.44891 1.01709 7.06902V9.41583C1.01709 9.93769 1.34775 10.3777 1.8094 10.5494C1.70006 14.2457 1.7888 18.1021 1.95254 20.02C1.95254 21.5006 2.94715 21.255 2.94715 21.255H3.87943V22.8533C3.87943 23.4872 4.53281 24.0001 5.3378 24.0001C6.14384 24.0001 6.79722 23.4872 6.79722 22.8533V21.255H17.6434V22.8533C17.6434 23.4872 18.2962 24.0001 19.1023 24.0001C19.9072 24.0001 20.5606 23.4872 20.5606 22.8533V21.255H20.867C20.867 21.255 22.0375 21.4156 22.1125 20.7183C22.1125 18.8057 22.2329 14.5669 22.1336 10.5657C22.6243 10.412 22.9824 9.95988 22.9824 9.41583V7.06902C22.983 6.43412 22.4917 5.91912 21.869 5.86841ZM6.43118 2.21852H17.3835V3.8755H6.43118V2.21852ZM6.58753 19.3677C5.72761 19.3677 5.03091 18.6705 5.03091 17.8106C5.03091 16.9512 5.72761 16.2545 6.58753 16.2545C7.44744 16.2545 8.14467 16.9512 8.14467 17.8106C8.14467 18.6705 7.44797 19.3677 6.58753 19.3677ZM17.3249 19.3677C16.4655 19.3677 15.7672 18.6705 15.7672 17.8106C15.7672 16.9512 16.4649 16.2545 17.3249 16.2545C18.1848 16.2545 18.8815 16.9512 18.8815 17.8106C18.882 18.6705 18.1848 19.3677 17.3249 19.3677ZM19.304 12.5539H4.51063V4.79457H19.304V12.5539Z" fill="#2DCA6F"/>
</g>
<defs>
<clipPath id="clip0">
<rect width="24" height="24" fill="white"/>
</clipPath>
</defs>
</svg>