<svg width="24" height="24" viewBox="0 0 24 24" fill="none" xmlns="http://www.w3.org/2000/svg">
<path d="M23.9997 13.1033C23.9997 12.6312 23.8931 12.1803 23.7006 11.7678C23.6808 11.663 23.6581 11.5583 23.6297 11.4521L21.545 6.28555L21.5309 6.23907C20.8015 4.06722 19.7636 2.05713 17.132 2.05713H7.06996C4.37339 2.05713 3.42051 4.11703 2.67512 6.22701L0.494481 11.4061C0.179231 11.9112 0 12.489 0 13.1033V14.711C0 14.9595 0.0293804 15.2027 0.0852461 15.4369C0.0309352 15.5783 0 15.7308 0 15.8916V20.6731C0 21.3743 0.568415 21.9428 1.26958 21.9428H3.90417C4.60495 21.9428 5.17337 21.3743 5.17337 20.6731V18.282H18.9768V20.6731C18.9768 21.3743 19.5453 21.9428 20.2465 21.9428H22.7303C23.4317 21.9428 24 21.3743 24 20.6731V15.891C24 15.7309 23.9687 15.5777 23.9149 15.4367C23.9705 15.2021 24 14.9593 24 14.7108V13.1034H23.9997V13.1033ZM4.22231 6.74572C5.05241 4.4037 5.71996 3.68876 7.06996 3.68876H17.1314C18.4714 3.68876 19.2176 4.48616 19.9759 6.73564L21.4972 9.81855C21.0005 9.6346 20.4538 9.53252 19.8795 9.53252H4.12018C3.60307 9.53252 3.10891 9.61567 2.65298 9.76617L4.22231 6.74572ZM5.52915 15.3215H2.74937C2.24889 15.3215 1.84298 14.9152 1.84298 14.4148C1.84298 13.9142 2.24889 13.5082 2.74937 13.5082H5.52915C6.02985 13.5082 6.43576 13.9142 6.43576 14.4148C6.43576 14.9152 6.02958 15.3215 5.52915 15.3215ZM15.3488 15.1399H8.88297C8.56595 15.1399 8.30908 14.8829 8.30908 14.5661C8.30908 14.2486 8.56595 13.9917 8.88297 13.9917H15.3488C15.6662 13.9917 15.923 14.2486 15.923 14.5661C15.923 14.8829 15.6662 15.1399 15.3488 15.1399ZM21.1802 15.3215H18.4006C17.8996 15.3215 17.494 14.9152 17.494 14.4148C17.494 13.9142 17.9 13.5082 18.4006 13.5082H21.1802C21.6811 13.5082 22.0872 13.9142 22.0872 14.4148C22.0872 14.9152 21.6811 15.3215 21.1802 15.3215Z" fill="#2DCA6F"/>
</svg>