<svg width="18" height="18" viewBox="0 0 18 18" fill="none" xmlns="http://www.w3.org/2000/svg">
<g clip-path="url(#clip0)">
<path d="M14.0001 8.29764L5.9899 0.287559C5.80463 0.102146 5.55731 0 5.29361 0C5.0299 0 4.78259 0.102146 4.59732 0.287559L4.00742 0.87731C3.62357 1.2616 3.62357 1.88618 4.00742 2.26988L10.7338 8.99627L3.99996 15.7301C3.81469 15.9155 3.7124 16.1627 3.7124 16.4263C3.7124 16.6901 3.81469 16.9373 3.99996 17.1228L4.58986 17.7124C4.77527 17.8979 5.02244 18 5.28615 18C5.54985 18 5.79717 17.8979 5.98243 17.7124L14.0001 9.69504C14.1858 9.50904 14.2878 9.26071 14.2872 8.99671C14.2878 8.73169 14.1858 8.48349 14.0001 8.29764Z" fill="#2DCA6F"/>
</g>
<defs>
<clipPath id="clip0">
<rect width="18" height="18" rx="9" fill="white"/>
</clipPath>
</defs>
</svg>
