<svg width="31" height="31" viewBox="0 0 31 31" fill="none" xmlns="http://www.w3.org/2000/svg">
<path d="M15.5303 24.0081C17.2022 24.0081 18.5576 22.6527 18.5576 20.9808C18.5576 19.3089 17.2022 17.9536 15.5303 17.9536C13.8583 17.9536 12.5029 19.3089 12.5029 20.9808C12.5029 22.6527 13.8583 24.0081 15.5303 24.0081Z" fill="#2DCA6F"/>
<path d="M30.0918 0H0.908203C0.406633 0 0 0.406572 0 0.908143V22.7039C0 23.2055 0.406633 23.6121 0.908203 23.6121H11.4671C9.38513 20.4091 11.6946 16.1368 15.5303 16.1368C19.3659 16.1368 21.6754 20.409 19.5935 23.6121H30.0918C30.5934 23.6121 31 23.2055 31 22.7039V0.908143C31 0.406572 30.5934 0 30.0918 0ZM11.8672 3.69318H19.1328C19.6344 3.69318 20.041 4.09975 20.041 4.60132C20.041 5.10289 19.6344 5.50946 19.1328 5.50946H11.8672C11.3656 5.50946 10.959 5.10289 10.959 4.60132C10.959 4.09975 11.3656 3.69318 11.8672 3.69318ZM24.582 14.5911H6.41797C5.9164 14.5911 5.50977 14.1845 5.50977 13.6829C5.50977 13.1814 5.9164 12.7748 6.41797 12.7748H24.582C25.0836 12.7748 25.4902 13.1814 25.4902 13.6829C25.4902 14.1845 25.0836 14.5911 24.582 14.5911ZM24.582 10.9584H6.41797C5.9164 10.9584 5.50977 10.5519 5.50977 10.0503C5.50977 9.54873 5.9164 9.14215 6.41797 9.14215H24.582C25.0836 9.14215 25.4902 9.54873 25.4902 10.0503C25.4902 10.5519 25.0836 10.9584 24.582 10.9584Z" fill="#2DCA6F"/>
<path d="M11.9126 24.1963V30.0903C11.9126 30.8104 12.7167 31.2489 13.3226 30.8472L15.5606 29.3635L17.7986 30.8472C18.3953 31.2428 19.2086 30.8188 19.2086 30.0903V24.1265C17.2953 26.36 13.8698 26.3955 11.9126 24.1963Z" fill="#2DCA6F"/>
</svg>