<svg width="29" height="29" viewBox="0 0 29 29" fill="none" xmlns="http://www.w3.org/2000/svg">
<path d="M14.5 0C6.50438 0 0 6.50438 0 14.5C0 22.4956 6.50438 29 14.5 29C22.4956 29 29 22.4956 29 14.5C29 6.50438 22.4956 0 14.5 0ZM21.396 22C21.1604 22.2356 20.8511 22.3542 20.5417 22.3542C20.2324 22.3542 19.9229 22.2356 19.6875 22L13.6457 15.9585C13.4185 15.7326 13.2917 15.4255 13.2917 15.1042V7.25C13.2917 6.58182 13.8329 6.04174 14.5 6.04174C15.1671 6.04174 15.7083 6.58182 15.7083 7.25V14.604L21.396 20.2915C21.8684 20.7641 21.8684 21.5276 21.396 22Z" fill="#2DCA6F"/>
</svg>