<svg width="33" height="32" viewBox="0 0 33 32" fill="none" xmlns="http://www.w3.org/2000/svg">
<path d="M25.9869 1.15081C25.1659 0.373332 24.1152 0 23.0563 0C21.8642 0 20.6604 0.472887 19.7628 1.37718L19.3777 1.76473L18.9925 1.37599C18.0949 0.472887 16.8911 0 15.699 0C14.6401 0 13.5894 0.373332 12.7684 1.15081C10.9626 2.86102 10.9308 5.72205 12.6718 7.47374L19.3777 14.221L26.0835 7.47374C27.8245 5.72205 27.7927 2.86102 25.9869 1.15081Z" fill="#2DCA6F"/>
<path d="M32.5693 17.6571C31.5386 16.9543 30.3242 17.1534 29.2488 17.778C28.1733 18.4025 21.9987 23.7145 21.9987 23.7145L15.9207 23.7157C15.638 23.7157 15.3317 23.3957 15.3317 23.1124C15.3317 22.7794 15.6203 22.5199 15.9207 22.5199H19.6393C20.9409 22.5199 22.398 21.6665 22.398 20.1495C22.398 18.5377 20.9409 17.7791 19.6393 17.7791C17.3813 17.7791 16.9419 17.7886 16.9419 17.7886C16.0373 17.7886 15.1197 17.7341 14.4129 17.3537C13.4706 16.8677 12.3846 16.5928 11.2255 16.5928C9.2796 16.5928 7.53747 17.3738 6.34306 18.6052L0 24.889L7.06748 32.0001L9.4233 29.6298H21.352C22.5394 29.6298 23.6855 29.1912 24.5724 28.3983L32.6494 19.2819C33.1429 18.8411 33.1147 18.0304 32.5693 17.6571Z" fill="#2DCA6F"/>
</svg>