<svg width="31" height="31" viewBox="0 0 31 31" fill="none" xmlns="http://www.w3.org/2000/svg">
<path d="M8.17383 0C7.67183 0 7.26562 0.406209 7.26562 0.908203V7.26562H5.44922V0.908203C5.44922 0.406209 5.04301 0 4.54102 0C4.03902 0 3.63281 0.406209 3.63281 0.908203V7.26562H1.81641V0.908203C1.81641 0.406209 1.4102 0 0.908203 0C0.406209 0 0 0.406209 0 0.908203C0 4.94565 0 5.9503 0 9.99023C0 11.4926 1.2222 12.7754 2.72461 12.7754H6.35742C7.85983 12.7754 9.08203 11.4926 9.08203 9.99023C9.08203 5.94891 9.08203 4.94789 9.08203 0.908203C9.08203 0.406209 8.67582 0 8.17383 0Z" fill="#2DCA6F"/>
<path d="M21.918 19.1328V10.3734C21.918 10.3708 21.9184 10.3684 21.9184 10.3659C20.4193 8.4917 18.0812 7.26562 15.5 7.26562C13.8478 7.26562 12.2227 7.75466 10.8984 8.64531V9.99023C10.8984 11.8476 9.77469 13.5041 8.17383 14.2069V19.1661C9.52318 21.8275 12.3173 23.6738 15.5 23.6738C18.2245 23.6738 20.6864 22.3211 22.1724 20.2659C22.0128 19.9199 21.918 19.5382 21.918 19.1328Z" fill="#2DCA6F"/>
<path d="M24.6426 21.8571C24.2206 21.8571 23.8257 21.7525 23.4689 21.5806C21.6406 23.9527 18.7195 25.4899 15.5 25.4899C12.6364 25.4899 9.99702 24.2721 8.17383 22.3352V27.0699C10.2783 28.4014 12.8256 29.1833 15.5 29.1833C19.453 29.1833 23.0622 27.4288 25.5508 24.7395V21.8571H24.6426Z" fill="#2DCA6F"/>
<path d="M15.5 1.81641C13.9052 1.81641 12.3207 2.10455 10.8984 2.60812V6.53858C12.2807 5.83145 13.8864 5.44922 15.5 5.44922C18.031 5.44922 20.3988 6.40301 22.1611 7.9601C22.3967 6.67759 22.7931 5.43893 23.3691 4.28648C21.1569 2.73472 18.4074 1.81641 15.5 1.81641Z" fill="#2DCA6F"/>
<path d="M30.5202 0.107161C30.2266 -0.0506852 29.8674 -0.0329449 29.588 0.152389C25.4459 2.91381 23.7344 6.48293 23.7344 10.3732V19.1327C23.7344 19.6347 24.1406 20.0409 24.6426 20.0409H27.3672V29.1835C27.3672 30.1865 28.1804 30.9999 29.1836 30.9999C30.1868 30.9999 31 30.1865 31 29.1835C31 14.6601 31 15.1585 31 0.908075C31 0.572827 30.8155 0.265067 30.5202 0.107161Z" fill="#2DCA6F"/>
<path d="M2.72461 14.5918V29.1836C2.72461 30.1867 3.53781 31 4.54102 31C5.54422 31 6.35742 30.1867 6.35742 29.1836V14.5918H2.72461Z" fill="#2DCA6F"/>
</svg>