<?xml version="1.0" encoding="UTF-8" standalone="no"?>
<!-- Created with Inkscape (http://www.inkscape.org/) -->

<svg
   version="1.1"
   id="svg9"
   width="100"
   height="100"
   viewBox="0 0 100 100"
   sodipodi:docname="logo_min.svg"
   xml:space="preserve"
   inkscape:version="1.2.1 (9c6d41e410, 2022-07-14)"
   xmlns:inkscape="http://www.inkscape.org/namespaces/inkscape"
   xmlns:sodipodi="http://sodipodi.sourceforge.net/DTD/sodipodi-0.dtd"
   xmlns="http://www.w3.org/2000/svg"
   xmlns:svg="http://www.w3.org/2000/svg"><defs
     id="defs13" /><sodipodi:namedview
     id="namedview11"
     pagecolor="#505050"
     bordercolor="#eeeeee"
     borderopacity="1"
     inkscape:showpageshadow="0"
     inkscape:pageopacity="0"
     inkscape:pagecheckerboard="0"
     inkscape:deskcolor="#505050"
     showgrid="false"
     inkscape:zoom="0.60376042"
     inkscape:cx="568.93428"
     inkscape:cy="167.2849"
     inkscape:window-width="1440"
     inkscape:window-height="837"
     inkscape:window-x="-8"
     inkscape:window-y="105"
     inkscape:window-maximized="1"
     inkscape:current-layer="g15" /><g
     inkscape:groupmode="layer"
     inkscape:label="Image"
     id="g15"><path
       style="fill:#2dca6f;fill-opacity:1;stroke:none;stroke-width:0.160223;stroke-linecap:round;stroke-linejoin:round;stroke-dasharray:none;stroke-opacity:0"
       d="m 34.725606,87.521895 c 0,-0.847953 -0.479592,-2.421967 -1.051499,-3.450985 C 32.888315,82.657057 31.735412,81.6962 28.598292,79.840642 27.075677,78.940044 24.634964,77.493115 23.174466,76.625245 18.045895,73.577702 15.010561,71.196793 13.901465,69.351518 12.29001,66.670442 10.745843,61.127336 9.9038873,55.001424 9.2300419,50.098652 9.2746523,49.154879 10.217752,48.36131 c 1.586057,-1.334579 3.480155,-0.0058 4.406732,3.092062 0.95522,3.193373 1.255405,4.017491 1.940065,5.326182 1.75265,3.350095 4.802779,6.437836 7.902235,7.999685 1.308563,0.65939 2.639919,1.121415 3.231473,1.121415 0.791359,0 0.742764,-0.05101 -1.627922,-1.710537 -3.064578,-2.145188 -4.487919,-3.491713 -4.487919,-4.245726 0,-0.149566 0.242925,-0.529521 0.53984,-0.844343 0.492675,-0.522387 0.617373,-0.572404 1.427035,-0.572404 0.989418,0 2.900129,0.610216 5.926143,1.892601 3.085086,1.307419 5.568222,2.976396 8.273079,5.56055 5.645145,5.39321 8.591402,11.148348 9.969615,19.474354 0.167812,1.013797 0.306426,2.00554 0.308032,2.203893 l 0.0029,0.360633 H 41.377082 34.72535 Z m 18.114873,0.137147 c 0.0017,-0.198353 0.140218,-1.190096 0.308037,-2.203893 1.374996,-8.306575 4.296784,-14.037255 9.888141,-19.394219 2.875113,-2.754585 5.364486,-4.412523 8.66711,-5.772362 3.121878,-1.285423 4.641654,-1.760924 5.628134,-1.760924 0.792977,0 0.921909,0.05222 1.412473,0.572404 0.29692,0.314822 0.539846,0.694783 0.539846,0.844343 0,0.754013 -1.42334,2.100538 -4.487919,4.245726 -2.37068,1.659475 -2.419281,1.710537 -1.627922,1.710537 0.591554,0 1.92291,-0.462025 3.231472,-1.121415 3.085657,-1.554889 6.157399,-4.664516 7.90224,-7.999685 0.684654,-1.308691 0.984839,-2.132809 1.94006,-5.326182 0.529107,-1.768833 1.235608,-2.824941 2.219715,-3.318117 0.873918,-0.437948 1.473612,-0.374237 2.195577,0.233251 0.933713,0.785676 0.977684,1.740833 0.305309,6.632918 -0.841956,6.125912 -2.386125,11.669018 -3.997583,14.350094 -0.301604,0.501795 -1.064281,1.395872 -1.694843,1.98683 -2.018624,1.891862 -4.434775,3.466344 -13.388268,8.724451 -2.689568,1.579496 -4.031343,2.729736 -4.739916,4.063287 -0.53159,1.000477 -1.001111,2.593102 -1.001111,3.395809 v 0.49778 h -6.651738 -6.651735 z m 4.164436,-28.344166 c 0,-5.103223 -0.04882,-6.677075 -0.228563,-7.365221 -0.787548,-3.01553 -3.528259,-5.125382 -6.65208,-5.12092 -3.505506,0.0047 -6.362776,2.394852 -6.896659,5.768446 -0.09069,0.573008 -0.165422,3.607009 -0.166091,6.742215 l -0.0012,5.700378 -1.803188,-1.780812 c -2.537782,-2.506209 -4.848358,-4.274452 -7.493315,-5.734417 -1.099327,-0.606808 -5.216499,-2.34564 -6.37124,-2.690812 l -0.6812,-0.203616 0.0064,-3.540919 0.0064,-3.540924 11.687363,-12.900446 c 6.428056,-7.095246 11.744598,-12.913972 11.814544,-12.930506 0.06994,-0.01653 0.934062,0.884014 1.920258,2.001215 0.986201,1.117201 6.123536,6.863802 11.416324,12.770225 l 9.623244,10.738948 -0.03625,3.831684 -0.03625,3.831696 -2.404241,0.989179 c -2.874181,1.182516 -3.704833,1.598496 -5.516032,2.762341 -2.076737,1.334475 -4.212351,3.110401 -6.304831,5.242939 l -1.883305,1.919392 z M 18.560955,41.096894 c 0.222451,-0.242431 3.825799,-4.227459 8.007443,-8.855629 4.181645,-4.628167 11.027515,-12.196248 15.21304,-16.817958 4.185524,-4.621709 7.826422,-8.6425103 8.090891,-8.9351135 L 50.353177,5.9561896 64.645596,21.943747 c 7.860828,8.793155 15.02558,16.800247 15.921676,17.793522 l 1.629254,1.805956 -4.058099,-0.04282 -4.058099,-0.04288 -11.863571,-13.264249 -11.86358,-13.26424 -0.721273,0.80195 c -0.3967,0.441073 -5.806244,6.424592 -12.021214,13.296712 l -11.29993,12.494759 -4.077129,0.0076 -4.07713,0.0076 0.404454,-0.440775 z"
       id="path177" /><ellipse
       style="fill:none;fill-opacity:1;stroke:#2dca6f;stroke-width:2.92358;stroke-linecap:round;stroke-linejoin:round;stroke-dasharray:none;stroke-opacity:1"
       id="path5296"
       cx="50"
       cy="50.000004"
       rx="48.538208"
       ry="48.538212" /></g></svg>
