<?xml version="1.0" encoding="UTF-8" standalone="no"?>
<!-- Created with Inkscape (http://www.inkscape.org/) -->

<svg
   version="1.1"
   id="svg9"
   width="828"
   height="260"
   viewBox="0 0 828 260"
   sodipodi:docname="logo.svg"
   xml:space="preserve"
   inkscape:version="1.2.1 (9c6d41e410, 2022-07-14)"
   xmlns:inkscape="http://www.inkscape.org/namespaces/inkscape"
   xmlns:sodipodi="http://sodipodi.sourceforge.net/DTD/sodipodi-0.dtd"
   xmlns="http://www.w3.org/2000/svg"
   xmlns:svg="http://www.w3.org/2000/svg"><defs
     id="defs13" /><sodipodi:namedview
     id="namedview11"
     pagecolor="#505050"
     bordercolor="#eeeeee"
     borderopacity="1"
     inkscape:showpageshadow="0"
     inkscape:pageopacity="0"
     inkscape:pagecheckerboard="0"
     inkscape:deskcolor="#505050"
     showgrid="false"
     inkscape:zoom="0.60376042"
     inkscape:cx="608.68514"
     inkscape:cy="167.2849"
     inkscape:window-width="1440"
     inkscape:window-height="837"
     inkscape:window-x="-8"
     inkscape:window-y="105"
     inkscape:window-maximized="1"
     inkscape:current-layer="g15" /><g
     inkscape:groupmode="layer"
     inkscape:label="Image"
     id="g15"><path
       style="fill:#2dca6f;fill-opacity:1;stroke:none;stroke-width:0.275404;stroke-linecap:round;stroke-linejoin:round;stroke-dasharray:none;stroke-opacity:0"
       d="m 125.40723,187.90244 c 0,-1.45753 -0.82436,-4.16307 -1.8074,-5.93182 -1.35068,-2.43025 -3.33238,-4.08184 -8.72471,-7.27132 -2.61719,-1.54802 -6.81248,-4.03512 -9.3229,-5.52688 -8.81539,-5.23835 -14.032761,-9.33085 -15.939163,-12.50265 -2.769896,-4.60845 -5.424132,-14.13637 -6.871352,-24.66608 -1.158258,-8.42727 -1.081578,-10.0495 0.539496,-11.41355 2.72624,-2.29398 5.981965,-0.01 7.574637,5.31488 1.641908,5.48902 2.157891,6.90558 3.334737,9.15506 3.012593,5.75841 8.255395,11.06586 13.582985,13.75049 2.24926,1.13342 4.5377,1.92758 5.55451,1.92758 1.36025,0 1.27672,-0.0877 -2.7982,-2.9402 -5.26764,-3.68732 -7.71419,-6.00184 -7.71419,-7.29789 0,-0.25709 0.41756,-0.91019 0.92792,-1.45133 0.84685,-0.89792 1.06119,-0.98389 2.4529,-0.98389 1.70069,0 4.98497,1.04889 10.18632,3.25315 5.30289,2.2473 9.5711,5.11607 14.22042,9.55791 9.70332,9.27028 14.76758,19.16266 17.13656,33.47406 0.28845,1.74259 0.52671,3.44728 0.52947,3.78822 l 0.005,0.61989 h -11.43399 -11.43352 z m 31.13727,0.23574 c 0.003,-0.34094 0.24102,-2.04563 0.52948,-3.78822 2.36345,-14.278 7.38565,-24.12834 16.99652,-33.33631 4.94197,-4.7348 9.2209,-7.5846 14.89771,-9.922 5.36613,-2.20948 7.97844,-3.02681 9.67408,-3.02681 1.36303,0 1.58465,0.0898 2.42787,0.98389 0.51037,0.54114 0.92793,1.19425 0.92793,1.45133 0,1.29605 -2.44655,3.61057 -7.71419,7.29789 -4.07491,2.85243 -4.15845,2.9402 -2.7982,2.9402 1.01681,0 3.30525,-0.79416 5.55451,-1.92758 5.30387,-2.67266 10.58382,-8.01773 13.58299,-13.75049 1.17684,-2.24948 1.69282,-3.66604 3.33473,-9.15506 0.90947,-3.04041 2.12386,-4.85573 3.81542,-5.70344 1.50216,-0.75278 2.53296,-0.64327 3.77393,0.40093 1.60494,1.35048 1.68052,2.99228 0.52479,11.40118 -1.44722,10.52971 -4.10146,20.05763 -6.87136,24.66608 -0.51842,0.86252 -1.82937,2.39933 -2.91323,3.41512 -3.46977,3.25188 -7.62284,5.95822 -23.01281,14.99627 -4.62304,2.71496 -6.92939,4.69208 -8.14734,6.9843 -0.91374,1.7197 -1.72079,4.45723 -1.72079,5.83698 v 0.85563 h -11.43353 -11.43353 z m 7.15816,-48.72018 c 0,-8.77183 -0.0839,-11.47709 -0.39287,-12.65993 -1.3537,-5.18333 -6.06465,-8.80991 -11.43412,-8.80224 -6.02554,0.008 -10.93684,4.11646 -11.85452,9.91526 -0.15589,0.98493 -0.28434,6.20001 -0.28549,11.58905 l -0.002,9.79826 -3.09946,-3.061 c -4.36214,-4.30787 -8.33374,-7.34726 -12.8801,-9.85677 -1.88961,-1.04303 -8.96653,-4.03187 -10.95139,-4.62518 l -1.1709,-0.34999 0.0109,-6.08641 0.0109,-6.08642 20.08916,-22.174302 c 11.04905,-12.195867 20.18754,-22.197552 20.30777,-22.225972 0.12022,-0.02841 1.60554,1.519513 3.30069,3.439846 1.69516,1.920332 10.52562,11.798043 19.62328,21.950468 l 16.54119,18.45895 -0.0623,6.5862 -0.0623,6.58622 -4.1326,1.70028 c -4.94037,2.0326 -6.36816,2.74762 -9.48139,4.74813 -3.56966,2.2938 -7.24052,5.3464 -10.83724,9.01198 l -3.23721,3.2992 z M 97.622155,108.10349 c 0.382366,-0.41671 6.576085,-7.26649 13.763825,-15.221753 7.18774,-7.955257 18.95496,-20.96387 26.14937,-28.908029 7.19441,-7.944158 13.45267,-14.855427 13.90726,-15.358377 l 0.82652,-0.91445 24.56694,27.480672 c 13.51181,15.114367 25.82715,28.877587 27.36743,30.584907 l 2.80049,3.10422 -6.97538,-0.0736 -6.97538,-0.0737 -20.39204,-22.799635 -20.39206,-22.799621 -1.23978,1.378456 c -0.68188,0.75815 -9.98023,11.043094 -20.66301,22.855434 l -19.42321,21.476976 -7.00809,0.013 -7.008093,0.013 0.695208,-0.75764 z"
       id="path177" /><circle
       style="fill:none;fill-opacity:1;stroke:#2dca6f;stroke-width:5.02528;stroke-linecap:round;stroke-linejoin:round;stroke-dasharray:none;stroke-opacity:1"
       id="path5296"
       cx="151.66206"
       cy="123.40685"
       r="83.431297" /><text
       xml:space="preserve"
       style="font-size:66.6667px;fill:#000000;fill-opacity:1;stroke:#f2d328;stroke-width:5.88051;stroke-linecap:round;stroke-linejoin:round;stroke-dasharray:none;stroke-opacity:1"
       x="364.81897"
       y="96.94252"
       id="text6027"
       transform="scale(0.7834407,1.2764208)"><tspan
         sodipodi:role="line"
         id="tspan6025"
         x="364.81897"
         y="96.94252"
         style="font-style:normal;font-variant:normal;font-weight:normal;font-stretch:normal;font-size:66.6667px;font-family:'Segoe Script';-inkscape-font-specification:'Segoe Script';fill:#000000;fill-opacity:1;stroke:none;stroke-width:5.88051">Уют и Гармония</tspan></text><text
       xml:space="preserve"
       style="font-style:normal;font-variant:normal;font-weight:normal;font-stretch:normal;font-size:37.3333px;font-family:'Segoe Script';-inkscape-font-specification:'Segoe Script';fill:#969696;fill-opacity:1;stroke:none;stroke-width:4.60703;stroke-linecap:round;stroke-linejoin:round;stroke-dasharray:none;stroke-opacity:1"
       x="281.61807"
       y="173.16052"
       id="text6356"><tspan
         sodipodi:role="line"
         id="tspan6354"
         x="281.61807"
         y="173.16052"
         style="font-style:normal;font-variant:normal;font-weight:normal;font-stretch:normal;font-size:37.3333px;font-family:sans-serif;-inkscape-font-specification:sans-serif;fill:#969696;fill-opacity:1;stroke-width:4.60703">Пансионат для пожилых</tspan></text></g></svg>
