<svg width="24" height="24" viewBox="0 0 24 24" fill="none" xmlns="http://www.w3.org/2000/svg">
<g clip-path="url(#clip0)">
<path d="M11.9998 0C6.94715 0 1.89453 0.631599 1.89453 5.05262V17.0526C1.89453 19.4905 3.87767 21.4737 6.31561 21.4737L4.42087 23.3685V24.0001H7.23769L9.76403 21.4737H14.5262L17.0524 24H19.5788V23.3684L17.684 21.4737C20.1219 21.4737 22.1051 19.4905 22.1051 17.0526V5.05262C22.1051 0.631599 17.583 0 11.9998 0ZM6.31561 18.9474C5.26717 18.9474 4.42087 18.1011 4.42087 17.0526C4.42087 16.0042 5.26717 15.1579 6.31561 15.1579C7.36405 15.1579 8.21035 16.0042 8.21035 17.0526C8.21035 18.1011 7.36399 18.9474 6.31561 18.9474ZM10.7366 10.1053H4.42087V5.05262H10.7367V10.1053H10.7366ZM17.684 18.9474C16.6356 18.9474 15.7893 18.1011 15.7893 17.0526C15.7893 16.0042 16.6356 15.1579 17.684 15.1579C18.7325 15.1579 19.5788 16.0042 19.5788 17.0526C19.5788 18.1011 18.7324 18.9474 17.684 18.9474ZM19.5788 10.1053H13.263V5.05262H19.5788V10.1053Z" fill="#2DCA6F"/>
</g>
<defs>
<clipPath id="clip0">
<rect width="24" height="24" fill="white"/>
</clipPath>
</defs>
</svg>